<svg xmlns="http://www.w3.org/2000/svg" viewBox="0 0 64 64" role="img" aria-label="Sports Courses Icon">
  <defs>
    <linearGradient id="bg" x1="0" y1="0" x2="1" y2="1">
      <stop offset="0%" stop-color="#15466e" />
      <stop offset="100%" stop-color="#1e6a5a" />
    </linearGradient>
    <linearGradient id="field" x1="0" y1="0" x2="0" y2="1">
      <stop offset="0%" stop-color="#2bb673" />
      <stop offset="100%" stop-color="#188f58" />
    </linearGradient>
  </defs>

  <rect width="64" height="64" rx="14" fill="url(#bg)" />

  <rect x="8" y="11" width="48" height="42" rx="10" fill="url(#field)" opacity="0.95" />
  <rect x="8" y="11" width="48" height="42" rx="10" fill="none" stroke="#d5f7e7" stroke-opacity="0.7" stroke-width="1.6" />
  <line x1="32" y1="11" x2="32" y2="53" stroke="#d5f7e7" stroke-opacity="0.7" stroke-width="1.5" />
  <circle cx="32" cy="32" r="6" fill="none" stroke="#d5f7e7" stroke-opacity="0.72" stroke-width="1.5" />

  <circle cx="32" cy="32" r="11.5" fill="#ffffff" />
  <polygon points="32,25.5 36.9,29.1 35.1,34.9 28.9,34.9 27.1,29.1" fill="#0f2742" />
  <g fill="#0f2742">
    <path d="M32 37.1l3.6 2.3-1 4.3-3.8 1.1-3.4-1.8-.3-4 4.9-2z" />
    <path d="M24.8 30l1.9 3.3-2.4 3.3-4-.2-2-3.5 2-3.4 4.5.5z" />
    <path d="M39.2 30l4.5-.5 2 3.4-2 3.5-4 .2-2.4-3.3 1.9-3.3z" />
    <path d="M27.5 23l3.9 1.4.6 3.8-3 2.2-3.6-1.5-.7-3.7 2.8-2.2z" />
    <path d="M36.5 23l2.8 2.2-.7 3.7-3.6 1.5-3-2.2.6-3.8 3.9-1.4z" />
  </g>
</svg>
